<?xml version="1.0" encoding="UTF-8" standalone="no"?>
<!DOCTYPE svg PUBLIC "-//W3C//DTD SVG 1.1//EN"
 "http://www.w3.org/Graphics/SVG/1.1/DTD/svg11.dtd">
<!-- Generated by graphviz version 12.1.0 (20240811.2233)
 -->
<!-- Title: G Pages: 1 -->
<svg width="975pt" height="2904pt"
 viewBox="0.00 0.00 974.62 2903.50" xmlns="http://www.w3.org/2000/svg" xmlns:xlink="http://www.w3.org/1999/xlink">
<g id="graph0" class="graph" transform="scale(1 1) rotate(0) translate(4 2899.5)">
<title>G</title>
<polygon fill="white" stroke="none" points="-4,4 -4,-2899.5 970.62,-2899.5 970.62,4 -4,4"/>
<!-- 0 -->
<g id="node1" class="node">
<title>0</title>
<polygon fill="#ffffe5" stroke="black" points="966.62,-2895.5 447.38,-2895.5 447.38,-2673 966.62,-2673 966.62,-2895.5"/>
<text text-anchor="start" x="455.38" y="-2878.2" font-family="monospace" font-size="14.00">; int iter_nested_deeply_iters(const void *ctx) @ iters.c:441</text>
<text text-anchor="start" x="455.38" y="-2858.7" font-family="monospace" font-size="14.00">0: r7 = r10 &#160;&#160;&#160;&#160;&#160;&#160;&#160;&#160;&#160;&#160;&#160;&#160;&#160;&#160;&#160;&#160;&#160;&#160;&#160;&#160;&#160;&#160;&#160;&#160;&#160;&#160;&#160;&#160;&#160;&#160;&#160;&#160;&#160;&#160;&#160;&#160;&#160;1</text>
<text text-anchor="start" x="455.38" y="-2839.2" font-family="monospace" font-size="14.00">1: r7 += &#45;8 &#160;&#160;&#160;&#160;&#160;&#160;&#160;&#160;&#160;&#160;&#160;&#160;&#160;&#160;&#160;&#160;&#160;&#160;&#160;&#160;&#160;&#160;&#160;&#160;&#160;&#160;&#160;&#160;&#160;&#160;&#160;&#160;&#160;&#160;&#160;&#160;&#160;1</text>
<text text-anchor="start" x="455.38" y="-2819.7" font-family="monospace" font-size="14.00">2: w6 = 0 &#160;&#160;&#160;&#160;&#160;&#160;&#160;&#160;&#160;&#160;&#160;&#160;&#160;&#160;&#160;&#160;&#160;&#160;&#160;&#160;&#160;&#160;&#160;&#160;&#160;&#160;&#160;&#160;&#160;&#160;&#160;&#160;&#160;&#160;&#160;&#160;&#160;&#160;&#160;1</text>
<text text-anchor="start" x="455.38" y="-2800.2" font-family="monospace" font-size="14.00">; bpf_repeat(10) { @ iters.c:447</text>
<text text-anchor="start" x="455.38" y="-2780.7" font-family="monospace" font-size="14.00">3: r1 = r7 &#160;&#160;&#160;&#160;&#160;&#160;&#160;&#160;&#160;&#160;&#160;&#160;&#160;&#160;&#160;&#160;&#160;&#160;&#160;&#160;&#160;&#160;&#160;&#160;&#160;&#160;&#160;&#160;&#160;&#160;&#160;&#160;&#160;&#160;&#160;&#160;&#160;&#160;1</text>
<text text-anchor="start" x="455.38" y="-2761.2" font-family="monospace" font-size="14.00">4: w2 = 0 &#160;&#160;&#160;&#160;&#160;&#160;&#160;&#160;&#160;&#160;&#160;&#160;&#160;&#160;&#160;&#160;&#160;&#160;&#160;&#160;&#160;&#160;&#160;&#160;&#160;&#160;&#160;&#160;&#160;&#160;&#160;&#160;&#160;&#160;&#160;&#160;&#160;&#160;&#160;1</text>
<text text-anchor="start" x="455.38" y="-2741.7" font-family="monospace" font-size="14.00">5: w3 = 10 &#160;&#160;&#160;&#160;&#160;&#160;&#160;&#160;&#160;&#160;&#160;&#160;&#160;&#160;&#160;&#160;&#160;&#160;&#160;&#160;&#160;&#160;&#160;&#160;&#160;&#160;&#160;&#160;&#160;&#160;&#160;&#160;&#160;&#160;&#160;&#160;&#160;&#160;1</text>
<text text-anchor="start" x="455.38" y="-2722.2" font-family="monospace" font-size="14.00">6: call bpf_iter_num_new#54605 &#160;&#160;&#160;&#160;&#160;&#160;&#160;&#160;&#160;&#160;&#160;&#160;&#160;&#160;&#160;&#160;&#160;&#160;1</text>
<text text-anchor="start" x="455.38" y="-2702.7" font-family="monospace" font-size="14.00">7: r1 = r7 &#160;&#160;&#160;&#160;&#160;&#160;&#160;&#160;&#160;&#160;&#160;&#160;&#160;&#160;&#160;&#160;&#160;&#160;&#160;&#160;&#160;&#160;&#160;&#160;&#160;&#160;&#160;&#160;&#160;&#160;&#160;&#160;&#160;&#160;&#160;&#160;&#160;&#160;1</text>
<text text-anchor="start" x="455.38" y="-2683.2" font-family="monospace" font-size="14.00">8: call bpf_iter_num_next#54607 &#160;&#160;&#160;&#160;&#160;&#160;&#160;&#160;&#160;&#160;&#160;&#160;&#160;&#160;&#160;&#160;&#160;1</text>
</g>
<!-- 9 -->
<g id="node2" class="node">
<title>9</title>
<polygon fill="#fff7bc" stroke="black" points="863.5,-2637 550.5,-2637 550.5,-2590 863.5,-2590 863.5,-2637"/>
<text text-anchor="start" x="558.5" y="-2619.7" font-family="monospace" font-size="14.00">; bpf_repeat(10) { @ iters.c:447</text>
<text text-anchor="start" x="558.5" y="-2600.2" font-family="monospace" font-size="14.00">9: if r0 == 0x0 goto pc+65 &#160;&#160;&#160;&#160;&#160;&#160;&#160;&#160;2</text>
</g>
<!-- 0&#45;&gt;9 -->
<g id="edge1" class="edge">
<title>0&#45;&gt;9</title>
<path fill="none" stroke="black" d="M707,-2672.57C707,-2664.14 707,-2656.09 707,-2648.82"/>
<polygon fill="black" stroke="black" points="710.5,-2648.9 707,-2638.9 703.5,-2648.9 710.5,-2648.9"/>
</g>
<!-- 10 -->
<g id="node3" class="node">
<title>10</title>
<polygon fill="#ffffe5" stroke="black" points="800.25,-2554 371.75,-2554 371.75,-2370.5 800.25,-2370.5 800.25,-2554"/>
<text text-anchor="start" x="379.75" y="-2536.7" font-family="monospace" font-size="14.00">10: r7 = r10 &#160;&#160;&#160;&#160;&#160;&#160;&#160;&#160;&#160;&#160;&#160;&#160;&#160;&#160;&#160;&#160;&#160;&#160;&#160;&#160;&#160;&#160;&#160;&#160;&#160;&#160;&#160;&#160;&#160;&#160;&#160;&#160;&#160;&#160;&#160;&#160;1</text>
<text text-anchor="start" x="379.75" y="-2517.2" font-family="monospace" font-size="14.00">11: r7 += &#45;16 &#160;&#160;&#160;&#160;&#160;&#160;&#160;&#160;&#160;&#160;&#160;&#160;&#160;&#160;&#160;&#160;&#160;&#160;&#160;&#160;&#160;&#160;&#160;&#160;&#160;&#160;&#160;&#160;&#160;&#160;&#160;&#160;&#160;&#160;&#160;1</text>
<text text-anchor="start" x="379.75" y="-2497.7" font-family="monospace" font-size="14.00">; bpf_repeat(10) { @ iters.c:448</text>
<text text-anchor="start" x="379.75" y="-2478.2" font-family="monospace" font-size="14.00">12: r1 = r7 &#160;&#160;&#160;&#160;&#160;&#160;&#160;&#160;&#160;&#160;&#160;&#160;&#160;&#160;&#160;&#160;&#160;&#160;&#160;&#160;&#160;&#160;&#160;&#160;&#160;&#160;&#160;&#160;&#160;&#160;&#160;&#160;&#160;&#160;&#160;&#160;&#160;1</text>
<text text-anchor="start" x="379.75" y="-2458.7" font-family="monospace" font-size="14.00">13: w2 = 0 &#160;&#160;&#160;&#160;&#160;&#160;&#160;&#160;&#160;&#160;&#160;&#160;&#160;&#160;&#160;&#160;&#160;&#160;&#160;&#160;&#160;&#160;&#160;&#160;&#160;&#160;&#160;&#160;&#160;&#160;&#160;&#160;&#160;&#160;&#160;&#160;&#160;&#160;1</text>
<text text-anchor="start" x="379.75" y="-2439.2" font-family="monospace" font-size="14.00">14: w3 = 10 &#160;&#160;&#160;&#160;&#160;&#160;&#160;&#160;&#160;&#160;&#160;&#160;&#160;&#160;&#160;&#160;&#160;&#160;&#160;&#160;&#160;&#160;&#160;&#160;&#160;&#160;&#160;&#160;&#160;&#160;&#160;&#160;&#160;&#160;&#160;&#160;&#160;1</text>
<text text-anchor="start" x="379.75" y="-2419.7" font-family="monospace" font-size="14.00">15: call bpf_iter_num_new#54605 &#160;&#160;&#160;&#160;&#160;&#160;&#160;&#160;&#160;&#160;&#160;&#160;&#160;&#160;&#160;&#160;&#160;1</text>
<text text-anchor="start" x="379.75" y="-2400.2" font-family="monospace" font-size="14.00">16: r1 = r7 &#160;&#160;&#160;&#160;&#160;&#160;&#160;&#160;&#160;&#160;&#160;&#160;&#160;&#160;&#160;&#160;&#160;&#160;&#160;&#160;&#160;&#160;&#160;&#160;&#160;&#160;&#160;&#160;&#160;&#160;&#160;&#160;&#160;&#160;&#160;&#160;&#160;1</text>
<text text-anchor="start" x="379.75" y="-2380.7" font-family="monospace" font-size="14.00">17: call bpf_iter_num_next#54607 &#160;&#160;&#160;&#160;&#160;&#160;&#160;&#160;&#160;&#160;&#160;&#160;&#160;&#160;&#160;&#160;1</text>
</g>
<!-- 9&#45;&gt;10 -->
<g id="edge2" class="edge">
<title>9&#45;&gt;10</title>
<path fill="none" stroke="black" d="M688.36,-2589.51C682.15,-2581.85 674.8,-2572.78 666.92,-2563.06"/>
<polygon fill="black" stroke="black" points="669.85,-2561.11 660.83,-2555.55 664.41,-2565.52 669.85,-2561.11"/>
</g>
<!-- 75 -->
<g id="node26" class="node">
<title>75</title>
<polygon fill="#fec44f" stroke="black" points="783.38,-208 346.62,-208 346.62,-102.5 783.38,-102.5 783.38,-208"/>
<text text-anchor="start" x="354.62" y="-190.7" font-family="monospace" font-size="14.00">; bpf_repeat(10) { @ iters.c:448</text>
<text text-anchor="start" x="354.62" y="-171.2" font-family="monospace" font-size="14.00">75: r1 = r10 &#160;&#160;&#160;&#160;&#160;&#160;&#160;&#160;&#160;&#160;&#160;&#160;&#160;&#160;&#160;&#160;&#160;&#160;&#160;&#160;&#160;&#160;&#160;&#160;&#160;&#160;&#160;&#160;&#160;&#160;&#160;&#160;&#160;&#160;&#160;&#160;13</text>
<text text-anchor="start" x="354.62" y="-151.7" font-family="monospace" font-size="14.00">76: r1 += &#45;8 &#160;&#160;&#160;&#160;&#160;&#160;&#160;&#160;&#160;&#160;&#160;&#160;&#160;&#160;&#160;&#160;&#160;&#160;&#160;&#160;&#160;&#160;&#160;&#160;&#160;&#160;&#160;&#160;&#160;&#160;&#160;&#160;&#160;&#160;&#160;&#160;13</text>
<text text-anchor="start" x="354.62" y="-132.2" font-family="monospace" font-size="14.00">; bpf_repeat(10) { @ iters.c:447</text>
<text text-anchor="start" x="354.62" y="-112.7" font-family="monospace" font-size="14.00">77: call bpf_iter_num_destroy#54603 &#160;&#160;&#160;&#160;&#160;&#160;&#160;&#160;&#160;&#160;&#160;&#160;&#160;13</text>
</g>
<!-- 9&#45;&gt;75 -->
<g id="edge3" class="edge">
<title>9&#45;&gt;75</title>
<path fill="none" stroke="blue" d="M768.64,-2589.55C784.26,-2580.78 799.33,-2569.14 809,-2554 867.11,-2463.01 830,-2419.96 830,-2312 830,-2312 830,-2312 830,-369 830,-312.26 841.07,-286.96 804,-244 794.39,-232.87 783.24,-223.15 771.12,-214.66"/>
<polygon fill="blue" stroke="blue" points="773.2,-211.84 762.93,-209.24 769.34,-217.68 773.2,-211.84"/>
</g>
<!-- 18 -->
<g id="node4" class="node">
<title>18</title>
<polygon fill="#fff7bc" stroke="black" points="727.62,-2334.5 406.38,-2334.5 406.38,-2287.5 727.62,-2287.5 727.62,-2334.5"/>
<text text-anchor="start" x="414.38" y="-2317.2" font-family="monospace" font-size="14.00">; bpf_repeat(10) { @ iters.c:448</text>
<text text-anchor="start" x="414.38" y="-2297.7" font-family="monospace" font-size="14.00">18: if r0 == 0x0 goto pc+53 &#160;&#160;&#160;&#160;&#160;&#160;&#160;&#160;2</text>
</g>
<!-- 10&#45;&gt;18 -->
<g id="edge4" class="edge">
<title>10&#45;&gt;18</title>
<path fill="none" stroke="black" d="M574.4,-2370.13C573.33,-2361.71 572.29,-2353.58 571.35,-2346.21"/>
<polygon fill="black" stroke="black" points="574.85,-2345.93 570.11,-2336.46 567.9,-2346.82 574.85,-2345.93"/>
</g>
<!-- 19 -->
<g id="node5" class="node">
<title>19</title>
<polygon fill="#fec44f" stroke="black" points="785.38,-2251.5 348.62,-2251.5 348.62,-2087.5 785.38,-2087.5 785.38,-2251.5"/>
<text text-anchor="start" x="356.62" y="-2234.2" font-family="monospace" font-size="14.00">19: r7 = r10 &#160;&#160;&#160;&#160;&#160;&#160;&#160;&#160;&#160;&#160;&#160;&#160;&#160;&#160;&#160;&#160;&#160;&#160;&#160;&#160;&#160;&#160;&#160;&#160;&#160;&#160;&#160;&#160;&#160;&#160;&#160;&#160;&#160;&#160;&#160;&#160;12</text>
<text text-anchor="start" x="356.62" y="-2214.7" font-family="monospace" font-size="14.00">20: r7 += &#45;24 &#160;&#160;&#160;&#160;&#160;&#160;&#160;&#160;&#160;&#160;&#160;&#160;&#160;&#160;&#160;&#160;&#160;&#160;&#160;&#160;&#160;&#160;&#160;&#160;&#160;&#160;&#160;&#160;&#160;&#160;&#160;&#160;&#160;&#160;&#160;12</text>
<text text-anchor="start" x="356.62" y="-2195.2" font-family="monospace" font-size="14.00">; bpf_repeat(10) { @ iters.c:449</text>
<text text-anchor="start" x="356.62" y="-2175.7" font-family="monospace" font-size="14.00">21: r1 = r7 &#160;&#160;&#160;&#160;&#160;&#160;&#160;&#160;&#160;&#160;&#160;&#160;&#160;&#160;&#160;&#160;&#160;&#160;&#160;&#160;&#160;&#160;&#160;&#160;&#160;&#160;&#160;&#160;&#160;&#160;&#160;&#160;&#160;&#160;&#160;&#160;&#160;12</text>
<text text-anchor="start" x="356.62" y="-2156.2" font-family="monospace" font-size="14.00">22: w2 = 0 &#160;&#160;&#160;&#160;&#160;&#160;&#160;&#160;&#160;&#160;&#160;&#160;&#160;&#160;&#160;&#160;&#160;&#160;&#160;&#160;&#160;&#160;&#160;&#160;&#160;&#160;&#160;&#160;&#160;&#160;&#160;&#160;&#160;&#160;&#160;&#160;&#160;&#160;12</text>
<text text-anchor="start" x="356.62" y="-2136.7" font-family="monospace" font-size="14.00">23: w3 = 10 &#160;&#160;&#160;&#160;&#160;&#160;&#160;&#160;&#160;&#160;&#160;&#160;&#160;&#160;&#160;&#160;&#160;&#160;&#160;&#160;&#160;&#160;&#160;&#160;&#160;&#160;&#160;&#160;&#160;&#160;&#160;&#160;&#160;&#160;&#160;&#160;&#160;12</text>
<text text-anchor="start" x="356.62" y="-2117.2" font-family="monospace" font-size="14.00">24: call bpf_iter_num_new#54605 &#160;&#160;&#160;&#160;&#160;&#160;&#160;&#160;&#160;&#160;&#160;&#160;&#160;&#160;&#160;&#160;&#160;12</text>
<text text-anchor="start" x="356.62" y="-2097.7" font-family="monospace" font-size="14.00">25: r1 = r7 &#160;&#160;&#160;&#160;&#160;&#160;&#160;&#160;&#160;&#160;&#160;&#160;&#160;&#160;&#160;&#160;&#160;&#160;&#160;&#160;&#160;&#160;&#160;&#160;&#160;&#160;&#160;&#160;&#160;&#160;&#160;&#160;&#160;&#160;&#160;&#160;&#160;12</text>
</g>
<!-- 18&#45;&gt;19 -->
<g id="edge5" class="edge">
<title>18&#45;&gt;19</title>
<path fill="none" stroke="black" d="M567,-2287.28C567,-2280.22 567,-2271.96 567,-2263.15"/>
<polygon fill="black" stroke="black" points="570.5,-2263.27 567,-2253.27 563.5,-2263.27 570.5,-2263.27"/>
</g>
<!-- 72 -->
<g id="node25" class="node">
<title>72</title>
<polygon fill="#fec44f" stroke="black" points="540.38,-310.5 103.62,-310.5 103.62,-244 540.38,-244 540.38,-310.5"/>
<text text-anchor="start" x="111.62" y="-293.2" font-family="monospace" font-size="14.00">72: r1 = r10 &#160;&#160;&#160;&#160;&#160;&#160;&#160;&#160;&#160;&#160;&#160;&#160;&#160;&#160;&#160;&#160;&#160;&#160;&#160;&#160;&#160;&#160;&#160;&#160;&#160;&#160;&#160;&#160;&#160;&#160;&#160;&#160;&#160;&#160;&#160;&#160;12</text>
<text text-anchor="start" x="111.62" y="-273.7" font-family="monospace" font-size="14.00">73: r1 += &#45;16 &#160;&#160;&#160;&#160;&#160;&#160;&#160;&#160;&#160;&#160;&#160;&#160;&#160;&#160;&#160;&#160;&#160;&#160;&#160;&#160;&#160;&#160;&#160;&#160;&#160;&#160;&#160;&#160;&#160;&#160;&#160;&#160;&#160;&#160;&#160;12</text>
<text text-anchor="start" x="111.62" y="-254.2" font-family="monospace" font-size="14.00">74: call bpf_iter_num_destroy#54603 &#160;&#160;&#160;&#160;&#160;&#160;&#160;&#160;&#160;&#160;&#160;&#160;&#160;12</text>
</g>
<!-- 18&#45;&gt;72 -->
<g id="edge6" class="edge">
<title>18&#45;&gt;72</title>
<path fill="none" stroke="blue" d="M406.04,-2299.15C238.41,-2278.08 0,-2216.17 0,-2034.5 0,-2034.5 0,-2034.5 0,-500.75 0,-405.09 97.37,-347.36 185.03,-314.76"/>
<polygon fill="blue" stroke="blue" points="186.03,-318.12 194.24,-311.43 183.64,-311.54 186.03,-318.12"/>
</g>
<!-- 26 -->
<g id="node6" class="node">
<title>26</title>
<polygon fill="#fee391" stroke="black" points="752.25,-2051.5 323.75,-2051.5 323.75,-2015.5 752.25,-2015.5 752.25,-2051.5"/>
<text text-anchor="start" x="331.75" y="-2029.95" font-family="monospace" font-size="14.00">26: call bpf_iter_num_next#54607 &#160;&#160;&#160;&#160;&#160;&#160;&#160;&#160;&#160;&#160;&#160;&#160;&#160;&#160;&#160;&#160;5</text>
</g>
<!-- 19&#45;&gt;26 -->
<g id="edge7" class="edge">
<title>19&#45;&gt;26</title>
<path fill="none" stroke="black" d="M549.38,-2087.08C547.5,-2078.4 545.7,-2070.07 544.1,-2062.7"/>
<polygon fill="black" stroke="black" points="547.57,-2062.16 542.03,-2053.12 540.72,-2063.64 547.57,-2062.16"/>
</g>
<!-- 27 -->
<g id="node7" class="node">
<title>27</title>
<polygon fill="#fec44f" stroke="black" points="689.75,-1979.5 360.25,-1979.5 360.25,-1943.5 689.75,-1943.5 689.75,-1979.5"/>
<text text-anchor="start" x="368.25" y="-1957.95" font-family="monospace" font-size="14.00">27: if r0 == 0x0 goto pc+36 &#160;&#160;&#160;&#160;&#160;&#160;&#160;&#160;10</text>
</g>
<!-- 26&#45;&gt;27 -->
<g id="edge8" class="edge">
<title>26&#45;&gt;27</title>
<path fill="none" stroke="black" d="M534.79,-2015.2C533.42,-2007.82 531.78,-1999.02 530.25,-1990.75"/>
<polygon fill="black" stroke="black" points="533.72,-1990.29 528.45,-1981.09 526.84,-1991.56 533.72,-1990.29"/>
</g>
<!-- 28 -->
<g id="node8" class="node">
<title>28</title>
<polygon fill="#fec44f" stroke="black" points="743.38,-1907.5 306.62,-1907.5 306.62,-1743.5 743.38,-1743.5 743.38,-1907.5"/>
<text text-anchor="start" x="314.62" y="-1890.2" font-family="monospace" font-size="14.00">28: r7 = r10 &#160;&#160;&#160;&#160;&#160;&#160;&#160;&#160;&#160;&#160;&#160;&#160;&#160;&#160;&#160;&#160;&#160;&#160;&#160;&#160;&#160;&#160;&#160;&#160;&#160;&#160;&#160;&#160;&#160;&#160;&#160;&#160;&#160;&#160;&#160;&#160;11</text>
<text text-anchor="start" x="314.62" y="-1870.7" font-family="monospace" font-size="14.00">29: r7 += &#45;32 &#160;&#160;&#160;&#160;&#160;&#160;&#160;&#160;&#160;&#160;&#160;&#160;&#160;&#160;&#160;&#160;&#160;&#160;&#160;&#160;&#160;&#160;&#160;&#160;&#160;&#160;&#160;&#160;&#160;&#160;&#160;&#160;&#160;&#160;&#160;11</text>
<text text-anchor="start" x="314.62" y="-1851.2" font-family="monospace" font-size="14.00">; bpf_repeat(10) { @ iters.c:450</text>
<text text-anchor="start" x="314.62" y="-1831.7" font-family="monospace" font-size="14.00">30: r1 = r7 &#160;&#160;&#160;&#160;&#160;&#160;&#160;&#160;&#160;&#160;&#160;&#160;&#160;&#160;&#160;&#160;&#160;&#160;&#160;&#160;&#160;&#160;&#160;&#160;&#160;&#160;&#160;&#160;&#160;&#160;&#160;&#160;&#160;&#160;&#160;&#160;&#160;11</text>
<text text-anchor="start" x="314.62" y="-1812.2" font-family="monospace" font-size="14.00">31: w2 = 0 &#160;&#160;&#160;&#160;&#160;&#160;&#160;&#160;&#160;&#160;&#160;&#160;&#160;&#160;&#160;&#160;&#160;&#160;&#160;&#160;&#160;&#160;&#160;&#160;&#160;&#160;&#160;&#160;&#160;&#160;&#160;&#160;&#160;&#160;&#160;&#160;&#160;&#160;11</text>
<text text-anchor="start" x="314.62" y="-1792.7" font-family="monospace" font-size="14.00">32: w3 = 10 &#160;&#160;&#160;&#160;&#160;&#160;&#160;&#160;&#160;&#160;&#160;&#160;&#160;&#160;&#160;&#160;&#160;&#160;&#160;&#160;&#160;&#160;&#160;&#160;&#160;&#160;&#160;&#160;&#160;&#160;&#160;&#160;&#160;&#160;&#160;&#160;&#160;11</text>
<text text-anchor="start" x="314.62" y="-1773.2" font-family="monospace" font-size="14.00">33: call bpf_iter_num_new#54605 &#160;&#160;&#160;&#160;&#160;&#160;&#160;&#160;&#160;&#160;&#160;&#160;&#160;&#160;&#160;&#160;&#160;11</text>
<text text-anchor="start" x="314.62" y="-1753.7" font-family="monospace" font-size="14.00">34: r1 = r7 &#160;&#160;&#160;&#160;&#160;&#160;&#160;&#160;&#160;&#160;&#160;&#160;&#160;&#160;&#160;&#160;&#160;&#160;&#160;&#160;&#160;&#160;&#160;&#160;&#160;&#160;&#160;&#160;&#160;&#160;&#160;&#160;&#160;&#160;&#160;&#160;&#160;11</text>
</g>
<!-- 27&#45;&gt;28 -->
<g id="edge9" class="edge">
<title>27&#45;&gt;28</title>
<path fill="none" stroke="black" d="M525,-1943.26C525,-1936.52 525,-1928.25 525,-1919.25"/>
<polygon fill="black" stroke="black" points="528.5,-1919.48 525,-1909.48 521.5,-1919.48 528.5,-1919.48"/>
</g>
<!-- 64 -->
<g id="node22" class="node">
<title>64</title>
<polygon fill="#fec44f" stroke="black" points="507.38,-574 70.62,-574 70.62,-429.5 507.38,-429.5 507.38,-574"/>
<text text-anchor="start" x="78.62" y="-556.7" font-family="monospace" font-size="14.00">64: r1 = r10 &#160;&#160;&#160;&#160;&#160;&#160;&#160;&#160;&#160;&#160;&#160;&#160;&#160;&#160;&#160;&#160;&#160;&#160;&#160;&#160;&#160;&#160;&#160;&#160;&#160;&#160;&#160;&#160;&#160;&#160;&#160;&#160;&#160;&#160;&#160;&#160;11</text>
<text text-anchor="start" x="78.62" y="-537.2" font-family="monospace" font-size="14.00">65: r1 += &#45;24 &#160;&#160;&#160;&#160;&#160;&#160;&#160;&#160;&#160;&#160;&#160;&#160;&#160;&#160;&#160;&#160;&#160;&#160;&#160;&#160;&#160;&#160;&#160;&#160;&#160;&#160;&#160;&#160;&#160;&#160;&#160;&#160;&#160;&#160;&#160;11</text>
<text text-anchor="start" x="78.62" y="-517.7" font-family="monospace" font-size="14.00">66: call bpf_iter_num_destroy#54603 &#160;&#160;&#160;&#160;&#160;&#160;&#160;&#160;&#160;&#160;&#160;&#160;&#160;11</text>
<text text-anchor="start" x="78.62" y="-498.2" font-family="monospace" font-size="14.00">67: r1 = r10 &#160;&#160;&#160;&#160;&#160;&#160;&#160;&#160;&#160;&#160;&#160;&#160;&#160;&#160;&#160;&#160;&#160;&#160;&#160;&#160;&#160;&#160;&#160;&#160;&#160;&#160;&#160;&#160;&#160;&#160;&#160;&#160;&#160;&#160;&#160;&#160;11</text>
<text text-anchor="start" x="78.62" y="-478.7" font-family="monospace" font-size="14.00">68: r1 += &#45;16 &#160;&#160;&#160;&#160;&#160;&#160;&#160;&#160;&#160;&#160;&#160;&#160;&#160;&#160;&#160;&#160;&#160;&#160;&#160;&#160;&#160;&#160;&#160;&#160;&#160;&#160;&#160;&#160;&#160;&#160;&#160;&#160;&#160;&#160;&#160;11</text>
<text text-anchor="start" x="78.62" y="-459.2" font-family="monospace" font-size="14.00">; bpf_repeat(10) { @ iters.c:448</text>
<text text-anchor="start" x="78.62" y="-439.7" font-family="monospace" font-size="14.00">69: call bpf_iter_num_next#54607 &#160;&#160;&#160;&#160;&#160;&#160;&#160;&#160;&#160;&#160;&#160;&#160;&#160;&#160;&#160;&#160;11</text>
</g>
<!-- 27&#45;&gt;64 -->
<g id="edge10" class="edge">
<title>27&#45;&gt;64</title>
<path fill="none" stroke="blue" d="M385.12,-1943.05C241.23,-1916.37 38,-1850.37 38,-1690.5 38,-1690.5 38,-1690.5 38,-715.5 38,-659 75.47,-614.4 121.45,-580.94"/>
<polygon fill="blue" stroke="blue" points="123.35,-583.89 129.51,-575.27 119.32,-578.16 123.35,-583.89"/>
</g>
<!-- 35 -->
<g id="node9" class="node">
<title>35</title>
<polygon fill="#fff7bc" stroke="black" points="717.25,-1707.5 288.75,-1707.5 288.75,-1671.5 717.25,-1671.5 717.25,-1707.5"/>
<text text-anchor="start" x="296.75" y="-1685.95" font-family="monospace" font-size="14.00">35: call bpf_iter_num_next#54607 &#160;&#160;&#160;&#160;&#160;&#160;&#160;&#160;&#160;&#160;&#160;&#160;&#160;&#160;&#160;&#160;3</text>
</g>
<!-- 28&#45;&gt;35 -->
<g id="edge11" class="edge">
<title>28&#45;&gt;35</title>
<path fill="none" stroke="black" d="M511.63,-1743.08C510.23,-1734.51 508.87,-1726.27 507.67,-1718.96"/>
<polygon fill="black" stroke="black" points="511.13,-1718.44 506.06,-1709.14 504.23,-1719.57 511.13,-1718.44"/>
</g>
<!-- 36 -->
<g id="node10" class="node">
<title>36</title>
<polygon fill="#fee391" stroke="black" points="653.62,-1635.5 332.38,-1635.5 332.38,-1599.5 653.62,-1599.5 653.62,-1635.5"/>
<text text-anchor="start" x="340.38" y="-1613.95" font-family="monospace" font-size="14.00">36: if r0 == 0x0 goto pc+19 &#160;&#160;&#160;&#160;&#160;&#160;&#160;&#160;6</text>
</g>
<!-- 35&#45;&gt;36 -->
<g id="edge12" class="edge">
<title>35&#45;&gt;36</title>
<path fill="none" stroke="black" d="M500.53,-1671.2C499.47,-1663.82 498.22,-1655.02 497.04,-1646.75"/>
<polygon fill="black" stroke="black" points="500.54,-1646.51 495.66,-1637.1 493.61,-1647.5 500.54,-1646.51"/>
</g>
<!-- 37 -->
<g id="node11" class="node">
<title>37</title>
<polygon fill="#fee391" stroke="black" points="707.25,-1563.5 278.75,-1563.5 278.75,-1419 707.25,-1419 707.25,-1563.5"/>
<text text-anchor="start" x="286.75" y="-1546.2" font-family="monospace" font-size="14.00">37: r1 = r10 &#160;&#160;&#160;&#160;&#160;&#160;&#160;&#160;&#160;&#160;&#160;&#160;&#160;&#160;&#160;&#160;&#160;&#160;&#160;&#160;&#160;&#160;&#160;&#160;&#160;&#160;&#160;&#160;&#160;&#160;&#160;&#160;&#160;&#160;&#160;&#160;7</text>
<text text-anchor="start" x="286.75" y="-1526.7" font-family="monospace" font-size="14.00">38: r1 += &#45;40 &#160;&#160;&#160;&#160;&#160;&#160;&#160;&#160;&#160;&#160;&#160;&#160;&#160;&#160;&#160;&#160;&#160;&#160;&#160;&#160;&#160;&#160;&#160;&#160;&#160;&#160;&#160;&#160;&#160;&#160;&#160;&#160;&#160;&#160;&#160;7</text>
<text text-anchor="start" x="286.75" y="-1507.2" font-family="monospace" font-size="14.00">; bpf_repeat(10) { @ iters.c:451</text>
<text text-anchor="start" x="286.75" y="-1487.7" font-family="monospace" font-size="14.00">39: w2 = 0 &#160;&#160;&#160;&#160;&#160;&#160;&#160;&#160;&#160;&#160;&#160;&#160;&#160;&#160;&#160;&#160;&#160;&#160;&#160;&#160;&#160;&#160;&#160;&#160;&#160;&#160;&#160;&#160;&#160;&#160;&#160;&#160;&#160;&#160;&#160;&#160;&#160;&#160;7</text>
<text text-anchor="start" x="286.75" y="-1468.2" font-family="monospace" font-size="14.00">40: w3 = 10 &#160;&#160;&#160;&#160;&#160;&#160;&#160;&#160;&#160;&#160;&#160;&#160;&#160;&#160;&#160;&#160;&#160;&#160;&#160;&#160;&#160;&#160;&#160;&#160;&#160;&#160;&#160;&#160;&#160;&#160;&#160;&#160;&#160;&#160;&#160;&#160;&#160;7</text>
<text text-anchor="start" x="286.75" y="-1448.7" font-family="monospace" font-size="14.00">41: call bpf_iter_num_new#54605 &#160;&#160;&#160;&#160;&#160;&#160;&#160;&#160;&#160;&#160;&#160;&#160;&#160;&#160;&#160;&#160;&#160;7</text>
<text text-anchor="start" x="286.75" y="-1429.2" font-family="monospace" font-size="14.00">42: w6 += &#45;1 &#160;&#160;&#160;&#160;&#160;&#160;&#160;&#160;&#160;&#160;&#160;&#160;&#160;&#160;&#160;&#160;&#160;&#160;&#160;&#160;&#160;&#160;&#160;&#160;&#160;&#160;&#160;&#160;&#160;&#160;&#160;&#160;&#160;&#160;&#160;&#160;7</text>
</g>
<!-- 36&#45;&gt;37 -->
<g id="edge13" class="edge">
<title>36&#45;&gt;37</title>
<path fill="none" stroke="black" d="M493,-1599.22C493,-1592.52 493,-1584.32 493,-1575.48"/>
<polygon fill="black" stroke="black" points="496.5,-1575.51 493,-1565.51 489.5,-1575.51 496.5,-1575.51"/>
</g>
<!-- 56 -->
<g id="node18" class="node">
<title>56</title>
<polygon fill="#fee391" stroke="black" points="494.25,-881.5 65.75,-881.5 65.75,-776 494.25,-776 494.25,-881.5"/>
<text text-anchor="start" x="73.75" y="-864.2" font-family="monospace" font-size="14.00">56: r1 = r10 &#160;&#160;&#160;&#160;&#160;&#160;&#160;&#160;&#160;&#160;&#160;&#160;&#160;&#160;&#160;&#160;&#160;&#160;&#160;&#160;&#160;&#160;&#160;&#160;&#160;&#160;&#160;&#160;&#160;&#160;&#160;&#160;&#160;&#160;&#160;&#160;7</text>
<text text-anchor="start" x="73.75" y="-844.7" font-family="monospace" font-size="14.00">57: r1 += &#45;32 &#160;&#160;&#160;&#160;&#160;&#160;&#160;&#160;&#160;&#160;&#160;&#160;&#160;&#160;&#160;&#160;&#160;&#160;&#160;&#160;&#160;&#160;&#160;&#160;&#160;&#160;&#160;&#160;&#160;&#160;&#160;&#160;&#160;&#160;&#160;7</text>
<text text-anchor="start" x="73.75" y="-825.2" font-family="monospace" font-size="14.00">58: call bpf_iter_num_destroy#54603 &#160;&#160;&#160;&#160;&#160;&#160;&#160;&#160;&#160;&#160;&#160;&#160;&#160;7</text>
<text text-anchor="start" x="73.75" y="-805.7" font-family="monospace" font-size="14.00">59: r1 = r10 &#160;&#160;&#160;&#160;&#160;&#160;&#160;&#160;&#160;&#160;&#160;&#160;&#160;&#160;&#160;&#160;&#160;&#160;&#160;&#160;&#160;&#160;&#160;&#160;&#160;&#160;&#160;&#160;&#160;&#160;&#160;&#160;&#160;&#160;&#160;&#160;7</text>
<text text-anchor="start" x="73.75" y="-786.2" font-family="monospace" font-size="14.00">60: r1 += &#45;24 &#160;&#160;&#160;&#160;&#160;&#160;&#160;&#160;&#160;&#160;&#160;&#160;&#160;&#160;&#160;&#160;&#160;&#160;&#160;&#160;&#160;&#160;&#160;&#160;&#160;&#160;&#160;&#160;&#160;&#160;&#160;&#160;&#160;&#160;&#160;7</text>
</g>
<!-- 36&#45;&gt;56 -->
<g id="edge14" class="edge">
<title>36&#45;&gt;56</title>
<path fill="none" stroke="blue" d="M376.56,-1599.05C331.48,-1590.23 286.71,-1578.24 270,-1563.5 197.76,-1499.76 194,-1456.84 194,-1360.5 194,-1360.5 194,-1360.5 194,-1071.75 194,-1007.78 221.01,-939.5 244.76,-891.84"/>
<polygon fill="blue" stroke="blue" points="247.82,-893.54 249.24,-883.04 241.58,-890.36 247.82,-893.54"/>
</g>
<!-- 43 -->
<g id="node12" class="node">
<title>43</title>
<polygon fill="#fec44f" stroke="black" points="659.38,-1383 288.62,-1383 288.62,-1336 659.38,-1336 659.38,-1383"/>
<text text-anchor="start" x="296.62" y="-1365.7" font-family="monospace" font-size="14.00">43: r1 = r10 &#160;&#160;&#160;&#160;&#160;&#160;&#160;&#160;&#160;&#160;&#160;&#160;&#160;&#160;&#160;&#160;&#160;&#160;&#160;&#160;&#160;&#160;&#160;&#160;&#160;&#160;&#160;&#160;10</text>
<text text-anchor="start" x="296.62" y="-1346.2" font-family="monospace" font-size="14.00">44: r1 += &#45;40 &#160;&#160;&#160;&#160;&#160;&#160;&#160;&#160;&#160;&#160;&#160;&#160;&#160;&#160;&#160;&#160;&#160;&#160;&#160;&#160;&#160;&#160;&#160;&#160;&#160;&#160;&#160;10</text>
</g>
<!-- 37&#45;&gt;43 -->
<g id="edge15" class="edge">
<title>37&#45;&gt;43</title>
<path fill="none" stroke="black" d="M482.5,-1418.54C481.29,-1410.26 480.1,-1402.12 479.01,-1394.69"/>
<polygon fill="black" stroke="black" points="482.47,-1394.18 477.56,-1384.8 475.54,-1395.2 482.47,-1394.18"/>
</g>
<!-- 45 -->
<g id="node13" class="node">
<title>45</title>
<polygon fill="#fee391" stroke="black" points="688.25,-1300 259.75,-1300 259.75,-1264 688.25,-1264 688.25,-1300"/>
<text text-anchor="start" x="267.75" y="-1278.45" font-family="monospace" font-size="14.00">45: call bpf_iter_num_next#54607 &#160;&#160;&#160;&#160;&#160;&#160;&#160;&#160;&#160;&#160;&#160;&#160;&#160;&#160;&#160;&#160;4</text>
</g>
<!-- 43&#45;&gt;45 -->
<g id="edge16" class="edge">
<title>43&#45;&gt;45</title>
<path fill="none" stroke="black" d="M474,-1335.85C474,-1328.23 474,-1319.64 474,-1311.62"/>
<polygon fill="black" stroke="black" points="477.5,-1311.63 474,-1301.63 470.5,-1311.63 477.5,-1311.63"/>
</g>
<!-- 46 -->
<g id="node14" class="node">
<title>46</title>
<polygon fill="#fee391" stroke="black" points="636.25,-1228 273.75,-1228 273.75,-1181 636.25,-1181 636.25,-1228"/>
<text text-anchor="start" x="281.75" y="-1210.7" font-family="monospace" font-size="14.00">46: w6 += 1 &#160;&#160;&#160;&#160;&#160;&#160;&#160;&#160;&#160;&#160;&#160;&#160;&#160;&#160;&#160;&#160;&#160;&#160;&#160;&#160;&#160;&#160;&#160;&#160;&#160;&#160;&#160;&#160;&#160;7</text>
<text text-anchor="start" x="281.75" y="-1191.2" font-family="monospace" font-size="14.00">47: if r0 != 0x0 goto pc&#45;5 &#160;&#160;&#160;&#160;&#160;&#160;&#160;&#160;&#160;&#160;&#160;&#160;&#160;&#160;7</text>
</g>
<!-- 45&#45;&gt;46 -->
<g id="edge17" class="edge">
<title>45&#45;&gt;46</title>
<path fill="none" stroke="black" d="M469.69,-1263.87C467.85,-1256.55 465.63,-1247.73 463.48,-1239.2"/>
<polygon fill="black" stroke="black" points="466.94,-1238.6 461.11,-1229.76 460.15,-1240.31 466.94,-1238.6"/>
</g>
<!-- 46&#45;&gt;43 -->
<g id="edge19" class="edge">
<title>46&#45;&gt;43</title>
<path fill="none" stroke="blue" stroke-width="5" d="M309.61,-1228.42C260.49,-1242.67 224.12,-1265.16 251,-1300 260.75,-1312.64 286.08,-1323.08 316.33,-1331.47"/>
<polygon fill="blue" stroke="blue" stroke-width="5" points="315.22,-1335.7 325.99,-1333.98 317.41,-1327.23 315.22,-1335.7"/>
</g>
<!-- 48 -->
<g id="node15" class="node">
<title>48</title>
<polygon fill="#fee391" stroke="black" points="669.25,-1145 240.75,-1145 240.75,-1000.5 669.25,-1000.5 669.25,-1145"/>
<text text-anchor="start" x="248.75" y="-1127.7" font-family="monospace" font-size="14.00">48: r1 = r10 &#160;&#160;&#160;&#160;&#160;&#160;&#160;&#160;&#160;&#160;&#160;&#160;&#160;&#160;&#160;&#160;&#160;&#160;&#160;&#160;&#160;&#160;&#160;&#160;&#160;&#160;&#160;&#160;&#160;&#160;&#160;&#160;&#160;&#160;&#160;&#160;4</text>
<text text-anchor="start" x="248.75" y="-1108.2" font-family="monospace" font-size="14.00">49: r1 += &#45;40 &#160;&#160;&#160;&#160;&#160;&#160;&#160;&#160;&#160;&#160;&#160;&#160;&#160;&#160;&#160;&#160;&#160;&#160;&#160;&#160;&#160;&#160;&#160;&#160;&#160;&#160;&#160;&#160;&#160;&#160;&#160;&#160;&#160;&#160;&#160;4</text>
<text text-anchor="start" x="248.75" y="-1088.7" font-family="monospace" font-size="14.00">50: call bpf_iter_num_destroy#54603 &#160;&#160;&#160;&#160;&#160;&#160;&#160;&#160;&#160;&#160;&#160;&#160;&#160;4</text>
<text text-anchor="start" x="248.75" y="-1069.2" font-family="monospace" font-size="14.00">51: r1 = r10 &#160;&#160;&#160;&#160;&#160;&#160;&#160;&#160;&#160;&#160;&#160;&#160;&#160;&#160;&#160;&#160;&#160;&#160;&#160;&#160;&#160;&#160;&#160;&#160;&#160;&#160;&#160;&#160;&#160;&#160;&#160;&#160;&#160;&#160;&#160;&#160;4</text>
<text text-anchor="start" x="248.75" y="-1049.7" font-family="monospace" font-size="14.00">52: r1 += &#45;32 &#160;&#160;&#160;&#160;&#160;&#160;&#160;&#160;&#160;&#160;&#160;&#160;&#160;&#160;&#160;&#160;&#160;&#160;&#160;&#160;&#160;&#160;&#160;&#160;&#160;&#160;&#160;&#160;&#160;&#160;&#160;&#160;&#160;&#160;&#160;4</text>
<text text-anchor="start" x="248.75" y="-1030.2" font-family="monospace" font-size="14.00">; bpf_repeat(10) { @ iters.c:450</text>
<text text-anchor="start" x="248.75" y="-1010.7" font-family="monospace" font-size="14.00">53: call bpf_iter_num_next#54607 &#160;&#160;&#160;&#160;&#160;&#160;&#160;&#160;&#160;&#160;&#160;&#160;&#160;&#160;&#160;&#160;4</text>
</g>
<!-- 46&#45;&gt;48 -->
<g id="edge18" class="edge">
<title>46&#45;&gt;48</title>
<path fill="none" stroke="black" d="M455,-1180.6C455,-1173.62 455,-1165.5 455,-1156.92"/>
<polygon fill="black" stroke="black" points="458.5,-1156.94 455,-1146.94 451.5,-1156.94 458.5,-1156.94"/>
</g>
<!-- 54 -->
<g id="node16" class="node">
<title>54</title>
<polygon fill="#fec44f" stroke="black" points="611.5,-964.5 298.5,-964.5 298.5,-917.5 611.5,-917.5 611.5,-964.5"/>
<text text-anchor="start" x="306.5" y="-947.2" font-family="monospace" font-size="14.00">; bpf_repeat(10) { @ iters.c:450</text>
<text text-anchor="start" x="306.5" y="-927.7" font-family="monospace" font-size="14.00">54: if r0 == 0x0 goto pc+1 &#160;&#160;&#160;&#160;&#160;&#160;&#160;&#160;8</text>
</g>
<!-- 48&#45;&gt;54 -->
<g id="edge20" class="edge">
<title>48&#45;&gt;54</title>
<path fill="none" stroke="black" d="M455,-1000.04C455,-991.76 455,-983.62 455,-976.19"/>
<polygon fill="black" stroke="black" points="458.5,-976.31 455,-966.31 451.5,-976.31 458.5,-976.31"/>
</g>
<!-- 55 -->
<g id="node17" class="node">
<title>55</title>
<polygon fill="#fee391" stroke="black" points="726,-846.75 512,-846.75 512,-810.75 726,-810.75 726,-846.75"/>
<text text-anchor="start" x="520" y="-825.2" font-family="monospace" font-size="14.00">55: goto pc&#45;19 &#160;&#160;&#160;&#160;&#160;&#160;&#160;&#160;4</text>
</g>
<!-- 54&#45;&gt;55 -->
<g id="edge21" class="edge">
<title>54&#45;&gt;55</title>
<path fill="none" stroke="black" d="M488.98,-917.16C516.68,-898.54 555.66,-872.33 583.7,-853.48"/>
<polygon fill="black" stroke="black" points="585.53,-856.47 591.87,-847.99 581.62,-850.66 585.53,-856.47"/>
</g>
<!-- 54&#45;&gt;56 -->
<g id="edge22" class="edge">
<title>54&#45;&gt;56</title>
<path fill="none" stroke="blue" d="M418.74,-917.16C405.1,-908.56 388.89,-898.35 372.45,-887.99"/>
<polygon fill="blue" stroke="blue" points="374.37,-885.07 364.04,-882.7 370.64,-890.99 374.37,-885.07"/>
</g>
<!-- 55&#45;&gt;37 -->
<g id="edge23" class="edge">
<title>55&#45;&gt;37</title>
<path fill="none" stroke="black" stroke-width="5" d="M631.29,-847C657.39,-885.41 716,-981.68 716,-1071.75 716,-1283 716,-1283 716,-1283 716,-1334.02 684.29,-1376.03 644.79,-1408.58"/>
<polygon fill="black" stroke="black" stroke-width="5" points="642.09,-1405.13 636.92,-1414.74 647.49,-1412.02 642.09,-1405.13"/>
</g>
<!-- 61 -->
<g id="node19" class="node">
<title>61</title>
<polygon fill="#fee391" stroke="black" points="498.25,-740 69.75,-740 69.75,-693 498.25,-693 498.25,-740"/>
<text text-anchor="start" x="77.75" y="-722.7" font-family="monospace" font-size="14.00">; bpf_repeat(10) { @ iters.c:449</text>
<text text-anchor="start" x="77.75" y="-703.2" font-family="monospace" font-size="14.00">61: call bpf_iter_num_next#54607 &#160;&#160;&#160;&#160;&#160;&#160;&#160;&#160;&#160;&#160;&#160;&#160;&#160;&#160;&#160;&#160;6</text>
</g>
<!-- 56&#45;&gt;61 -->
<g id="edge24" class="edge">
<title>56&#45;&gt;61</title>
<path fill="none" stroke="black" d="M281.89,-775.53C282.19,-767.42 282.49,-759.23 282.76,-751.66"/>
<polygon fill="black" stroke="black" points="286.25,-752 283.12,-741.88 279.26,-751.75 286.25,-752"/>
</g>
<!-- 62 -->
<g id="node20" class="node">
<title>62</title>
<polygon fill="#fec44f" stroke="black" points="449.62,-657 128.38,-657 128.38,-610 449.62,-610 449.62,-657"/>
<text text-anchor="start" x="136.38" y="-639.7" font-family="monospace" font-size="14.00">; bpf_repeat(10) { @ iters.c:449</text>
<text text-anchor="start" x="136.38" y="-620.2" font-family="monospace" font-size="14.00">62: if r0 == 0x0 goto pc+1 &#160;&#160;&#160;&#160;&#160;&#160;&#160;&#160;12</text>
</g>
<!-- 61&#45;&gt;62 -->
<g id="edge25" class="edge">
<title>61&#45;&gt;62</title>
<path fill="none" stroke="black" d="M285.42,-692.51C285.88,-685.09 286.39,-676.7 286.89,-668.66"/>
<polygon fill="black" stroke="black" points="290.38,-668.98 287.5,-658.78 283.39,-668.55 290.38,-668.98"/>
</g>
<!-- 63 -->
<g id="node21" class="node">
<title>63</title>
<polygon fill="#fee391" stroke="black" points="756,-519.75 542,-519.75 542,-483.75 756,-483.75 756,-519.75"/>
<text text-anchor="start" x="550" y="-498.2" font-family="monospace" font-size="14.00">63: goto pc&#45;36 &#160;&#160;&#160;&#160;&#160;&#160;&#160;&#160;6</text>
</g>
<!-- 62&#45;&gt;63 -->
<g id="edge26" class="edge">
<title>62&#45;&gt;63</title>
<path fill="none" stroke="black" d="M400.08,-609.51C437.51,-600.28 479.13,-588.39 516,-574 549.5,-560.93 585.32,-541.39 611.33,-526.07"/>
<polygon fill="black" stroke="black" points="613.05,-529.13 619.85,-521 609.46,-523.11 613.05,-529.13"/>
</g>
<!-- 62&#45;&gt;64 -->
<g id="edge27" class="edge">
<title>62&#45;&gt;64</title>
<path fill="none" stroke="blue" d="M289,-609.6C289,-602.62 289,-594.5 289,-585.92"/>
<polygon fill="blue" stroke="blue" points="292.5,-585.94 289,-575.94 285.5,-585.94 292.5,-585.94"/>
</g>
<!-- 63&#45;&gt;28 -->
<g id="edge28" class="edge">
<title>63&#45;&gt;28</title>
<path fill="none" stroke="black" stroke-width="5" d="M664.49,-520.08C693.7,-554.62 754,-635.59 754,-715.5 754,-1618.5 754,-1618.5 754,-1618.5 754,-1659.97 751.89,-1675.11 726,-1707.5 718.81,-1716.5 710.72,-1724.95 702.03,-1732.85"/>
<polygon fill="black" stroke="black" stroke-width="5" points="699.32,-1729.41 694.57,-1739.24 705.01,-1736.06 699.32,-1729.41"/>
</g>
<!-- 70 -->
<g id="node23" class="node">
<title>70</title>
<polygon fill="#fe9929" stroke="black" points="482.62,-393.5 161.38,-393.5 161.38,-346.5 482.62,-346.5 482.62,-393.5"/>
<text text-anchor="start" x="169.38" y="-376.2" font-family="monospace" font-size="14.00">; bpf_repeat(10) { @ iters.c:448</text>
<text text-anchor="start" x="169.38" y="-356.7" font-family="monospace" font-size="14.00">70: if r0 == 0x0 goto pc+1 &#160;&#160;&#160;&#160;&#160;&#160;&#160;&#160;22</text>
</g>
<!-- 64&#45;&gt;70 -->
<g id="edge29" class="edge">
<title>64&#45;&gt;70</title>
<path fill="none" stroke="black" d="M307.24,-429.04C309.37,-420.66 311.46,-412.43 313.37,-404.92"/>
<polygon fill="black" stroke="black" points="316.76,-405.82 315.83,-395.26 309.97,-404.09 316.76,-405.82"/>
</g>
<!-- 71 -->
<g id="node24" class="node">
<title>71</title>
<polygon fill="#fec44f" stroke="black" points="795.12,-295.25 572.88,-295.25 572.88,-259.25 795.12,-259.25 795.12,-295.25"/>
<text text-anchor="start" x="580.88" y="-273.7" font-family="monospace" font-size="14.00">71: goto pc&#45;53 &#160;&#160;&#160;&#160;&#160;&#160;&#160;&#160;11</text>
</g>
<!-- 70&#45;&gt;71 -->
<g id="edge30" class="edge">
<title>70&#45;&gt;71</title>
<path fill="none" stroke="black" d="M413.35,-346.1C471.86,-331.43 547.1,-312.57 603.4,-298.46"/>
<polygon fill="black" stroke="black" points="604.07,-301.9 612.92,-296.07 602.37,-295.11 604.07,-301.9"/>
</g>
<!-- 70&#45;&gt;72 -->
<g id="edge31" class="edge">
<title>70&#45;&gt;72</title>
<path fill="none" stroke="blue" d="M322,-346.1C322,-338.82 322,-330.51 322,-322.25"/>
<polygon fill="blue" stroke="blue" points="325.5,-322.25 322,-312.25 318.5,-322.25 325.5,-322.25"/>
</g>
<!-- 71&#45;&gt;19 -->
<g id="edge32" class="edge">
<title>71&#45;&gt;19</title>
<path fill="none" stroke="black" stroke-width="5" d="M699.24,-295.59C729.01,-331.31 792,-416.81 792,-500.75 792,-1962.5 792,-1962.5 792,-1962.5 792,-2004.39 787.39,-2018.97 761,-2051.5 753.76,-2060.42 745.64,-2068.84 736.95,-2076.73"/>
<polygon fill="black" stroke="black" stroke-width="5" points="734.24,-2073.3 729.49,-2083.13 739.93,-2079.94 734.24,-2073.3"/>
</g>
<!-- 72&#45;&gt;75 -->
<g id="edge33" class="edge">
<title>72&#45;&gt;75</title>
<path fill="none" stroke="black" d="M388.08,-243.62C407.04,-234.25 428.3,-223.76 449.32,-213.38"/>
<polygon fill="black" stroke="black" points="450.83,-216.53 458.25,-208.97 447.73,-210.26 450.83,-216.53"/>
</g>
<!-- 78 -->
<g id="node27" class="node">
<title>78</title>
<polygon fill="#fff7bc" stroke="black" points="746.25,-66.5 383.75,-66.5 383.75,0 746.25,0 746.25,-66.5"/>
<text text-anchor="start" x="391.75" y="-49.2" font-family="monospace" font-size="14.00">; return sum; @ iters.c:461</text>
<text text-anchor="start" x="391.75" y="-29.7" font-family="monospace" font-size="14.00">78: w0 = w6 &#160;&#160;&#160;&#160;&#160;&#160;&#160;&#160;&#160;&#160;&#160;&#160;&#160;&#160;&#160;&#160;&#160;&#160;&#160;&#160;&#160;&#160;&#160;&#160;&#160;&#160;&#160;&#160;&#160;2</text>
<text text-anchor="start" x="391.75" y="-10.2" font-family="monospace" font-size="14.00">79: exit &#160;&#160;&#160;&#160;&#160;&#160;&#160;&#160;&#160;&#160;&#160;&#160;&#160;&#160;&#160;&#160;&#160;&#160;&#160;&#160;&#160;&#160;&#160;&#160;&#160;&#160;&#160;&#160;&#160;&#160;&#160;&#160;2</text>
</g>
<!-- 75&#45;&gt;78 -->
<g id="edge34" class="edge">
<title>75&#45;&gt;78</title>
<path fill="none" stroke="black" d="M565,-102.31C565,-94.32 565,-86.14 565,-78.34"/>
<polygon fill="black" stroke="black" points="568.5,-78.38 565,-68.38 561.5,-78.38 568.5,-78.38"/>
</g>
</g>
</svg>
